<svg viewBox="180 38 640 538.05" width="100%" xmlns="http://www.w3.org/2000/svg" role="img" aria-label="Radar chart, GLM 5.2 fp8 vs fp4 across five domains, per-axis relative scale. Frontend design dents from 76.9 to 71.2.">
<polygon points="460.0,207.8 547.7,271.5 514.2,374.6 405.8,374.6 372.3,271.5" fill="none" stroke="#e2e2dc" stroke-width="1"/><polygon points="460.0,156.5 596.5,255.7 544.3,416.1 375.7,416.1 323.5,255.7" fill="none" stroke="#e2e2dc" stroke-width="1"/><polygon points="460.0,105.2 645.2,239.8 574.5,457.6 345.5,457.6 274.8,239.8" fill="none" stroke="#e2e2dc" stroke-width="1"/><line x1="460" y1="300" x2="460.0" y2="95.0" stroke="#e2e2dc" stroke-width="1"/><line x1="460" y1="300" x2="655.0" y2="236.7" stroke="#e2e2dc" stroke-width="1"/><line x1="460" y1="300" x2="580.5" y2="465.8" stroke="#e2e2dc" stroke-width="1"/><line x1="460" y1="300" x2="339.5" y2="465.8" stroke="#e2e2dc" stroke-width="1"/><line x1="460" y1="300" x2="265.0" y2="236.7" stroke="#e2e2dc" stroke-width="1"/><polygon points="460.0,135.6 573.5,263.1 547.1,419.9 377.6,413.4 323.5,255.7" fill="#1f5c3d" fill-opacity="0.10" stroke="#1f5c3d" stroke-width="2.5"/><polygon points="460.0,177.4 619.5,248.2 541.5,412.2 373.7,418.8 323.5,255.7" fill="#d6437c" fill-opacity="0.08" stroke="#d6437c" stroke-width="2.5"/><circle cx="460.0" cy="135.6" r="5.5" fill="#1f5c3d" stroke="#fff" stroke-width="1.5"/><circle cx="573.5" cy="263.1" r="5.5" fill="#1f5c3d" stroke="#fff" stroke-width="1.5"/><circle cx="547.1" cy="419.9" r="5.5" fill="#1f5c3d" stroke="#fff" stroke-width="1.5"/><circle cx="377.6" cy="413.4" r="5.5" fill="#1f5c3d" stroke="#fff" stroke-width="1.5"/><circle cx="323.5" cy="255.7" r="5.5" fill="#1f5c3d" stroke="#fff" stroke-width="1.5"/><circle cx="460.0" cy="177.4" r="5.5" fill="#fff" stroke="#d6437c" stroke-width="2.4"/><circle cx="619.5" cy="248.2" r="5.5" fill="#fff" stroke="#d6437c" stroke-width="2.4"/><circle cx="541.5" cy="412.2" r="5.5" fill="#fff" stroke="#d6437c" stroke-width="2.4"/><circle cx="373.7" cy="418.8" r="5.5" fill="#fff" stroke="#d6437c" stroke-width="2.4"/><circle cx="323.5" cy="255.7" r="5.5" fill="#fff" stroke="#d6437c" stroke-width="2.4"/><text x="460" y="65" text-anchor="middle" font-family="Inter,system-ui,sans-serif" font-size="17" font-weight="600" fill="#1a1a19">Frontend Design</text><text x="460" y="85" text-anchor="middle" font-family="Inter,system-ui,sans-serif" font-size="13.5"><tspan fill="#1f5c3d" font-weight="600">76.9</tspan><tspan fill="#9a9a94"> / </tspan><tspan fill="#d6437c" font-weight="600">71.2</tspan></text><text x="665" y="235" text-anchor="start" font-family="Inter,system-ui,sans-serif" font-size="17" font-weight="600" fill="#1a1a19">Agent Workflow</text><text x="665" y="255" text-anchor="start" font-family="Inter,system-ui,sans-serif" font-size="13.5"><tspan fill="#1f5c3d" font-weight="600">26.7</tspan><tspan fill="#9a9a94"> / </tspan><tspan fill="#d6437c" font-weight="600">33.3</tspan></text><text x="580" y="488" text-anchor="middle" font-family="Inter,system-ui,sans-serif" font-size="17" font-weight="600" fill="#1a1a19">Creative Writing</text><text x="580" y="508" text-anchor="middle" font-family="Inter,system-ui,sans-serif" font-size="13.5"><tspan fill="#1f5c3d" font-weight="600">83.5</tspan><tspan fill="#9a9a94"> / </tspan><tspan fill="#d6437c" font-weight="600">82.2</tspan></text><text x="340" y="488" text-anchor="middle" font-family="Inter,system-ui,sans-serif" font-size="17" font-weight="600" fill="#1a1a19">Guardrail</text><text x="340" y="508" text-anchor="middle" font-family="Inter,system-ui,sans-serif" font-size="13.5"><tspan fill="#1f5c3d" font-weight="600">95.7</tspan><tspan fill="#9a9a94"> / </tspan><tspan fill="#d6437c" font-weight="600">96.6</tspan></text><text x="255" y="235" text-anchor="end" font-family="Inter,system-ui,sans-serif" font-size="17" font-weight="600" fill="#1a1a19">Coding</text><text x="255" y="255" text-anchor="end" font-family="Inter,system-ui,sans-serif" font-size="13.5"><tspan fill="#1f5c3d" font-weight="600">80</tspan><tspan fill="#9a9a94"> / </tspan><tspan fill="#d6437c" font-weight="600">80</tspan></text><g font-family="Inter,system-ui,sans-serif" font-size="14">
  <line x1="300" y1="558.05" x2="334" y2="558.05" stroke="#1f5c3d" stroke-width="2.5"/><circle cx="317" cy="558.05" r="4.5" fill="#1f5c3d" stroke="#fff" stroke-width="1.2"/>
  <text x="342" y="563.05" fill="#1a1a19">fp8 (Z.AI)</text>
  <line x1="470" y1="558.05" x2="504" y2="558.05" stroke="#d6437c" stroke-width="2.5"/><circle cx="487" cy="558.05" r="4.5" fill="#fff" stroke="#d6437c" stroke-width="2"/>
  <text x="512" y="563.05" fill="#1a1a19">fp4 (Baseten)</text>
</g></svg>