<svg viewBox="120 20 690 620" width="100%" xmlns="http://www.w3.org/2000/svg" role="img" aria-label="Radar chart, GLM 5.2 fp8 vs fp4 across five domains, per-axis relative scale. Frontend design shows the clear dent, 76.9 vs 71.2.">
<rect width="920" height="640" fill="#ffffff"/>
<polygon points="460.0,230.0 545.6,292.2 512.9,392.8 407.1,392.8 374.4,292.2" fill="none" stroke="#e7e7e2" stroke-width="1"/><polygon points="460.0,180.0 593.1,276.7 542.3,433.3 377.7,433.3 326.9,276.7" fill="none" stroke="#e7e7e2" stroke-width="1"/><polygon points="460.0,130.0 640.7,261.3 571.7,473.7 348.3,473.7 279.3,261.3" fill="none" stroke="#e7e7e2" stroke-width="1"/><line x1="460" y1="320" x2="460.0" y2="120.0" stroke="#e7e7e2" stroke-width="1"/><line x1="460" y1="320" x2="650.2" y2="258.2" stroke="#e7e7e2" stroke-width="1"/><line x1="460" y1="320" x2="577.6" y2="481.8" stroke="#e7e7e2" stroke-width="1"/><line x1="460" y1="320" x2="342.4" y2="481.8" stroke="#e7e7e2" stroke-width="1"/><line x1="460" y1="320" x2="269.8" y2="258.2" stroke="#e7e7e2" stroke-width="1"/><polygon points="460.0,159.6 570.7,284.0 545.0,437.0 379.6,430.7 326.9,276.7" fill="#1f5c3d" fill-opacity="0.10" stroke="#1f5c3d" stroke-width="2.5"/><polygon points="460.0,200.4 615.6,269.5 539.6,429.5 375.8,435.9 326.9,276.7" fill="#d6437c" fill-opacity="0.07" stroke="#d6437c" stroke-width="2.2" stroke-dasharray="7 5"/><circle cx="460.0" cy="159.6" r="5.5" fill="#1f5c3d" stroke="#fff" stroke-width="1.5"/><circle cx="570.7" cy="284.0" r="5.5" fill="#1f5c3d" stroke="#fff" stroke-width="1.5"/><circle cx="545.0" cy="437.0" r="5.5" fill="#1f5c3d" stroke="#fff" stroke-width="1.5"/><circle cx="379.6" cy="430.7" r="5.5" fill="#1f5c3d" stroke="#fff" stroke-width="1.5"/><circle cx="326.9" cy="276.7" r="5.5" fill="#1f5c3d" stroke="#fff" stroke-width="1.5"/><circle cx="460.0" cy="200.4" r="5.5" fill="#fff" stroke="#d6437c" stroke-width="2.2"/><circle cx="615.6" cy="269.5" r="5.5" fill="#fff" stroke="#d6437c" stroke-width="2.2"/><circle cx="539.6" cy="429.5" r="5.5" fill="#fff" stroke="#d6437c" stroke-width="2.2"/><circle cx="375.8" cy="435.9" r="5.5" fill="#fff" stroke="#d6437c" stroke-width="2.2"/><circle cx="326.9" cy="276.7" r="5.5" fill="#fff" stroke="#d6437c" stroke-width="2.2"/><text x="460" y="102" text-anchor="middle" font-family="Inter,system-ui,sans-serif" font-size="16.5" font-weight="600" fill="#1a1a19">Frontend Design</text><text x="460" y="121" text-anchor="middle" font-family="Inter,system-ui,sans-serif" font-size="13" fill="#8a8a84"><tspan fill="#1f5c3d" font-weight="600">76.9</tspan> / <tspan fill="#d6437c" font-weight="600">71.2</tspan></text><text x="666" y="262" text-anchor="start" font-family="Inter,system-ui,sans-serif" font-size="16.5" font-weight="600" fill="#1a1a19">Agent Workflow</text><text x="666" y="281" text-anchor="start" font-family="Inter,system-ui,sans-serif" font-size="13" fill="#8a8a84"><tspan fill="#1f5c3d" font-weight="600">26.7</tspan> / <tspan fill="#d6437c" font-weight="600">33.3</tspan></text><text x="578" y="508" text-anchor="middle" font-family="Inter,system-ui,sans-serif" font-size="16.5" font-weight="600" fill="#1a1a19">Creative Writing</text><text x="578" y="527" text-anchor="middle" font-family="Inter,system-ui,sans-serif" font-size="13" fill="#8a8a84"><tspan fill="#1f5c3d" font-weight="600">83.5</tspan> / <tspan fill="#d6437c" font-weight="600">82.2</tspan></text><text x="342" y="508" text-anchor="middle" font-family="Inter,system-ui,sans-serif" font-size="16.5" font-weight="600" fill="#1a1a19">Guardrail</text><text x="342" y="527" text-anchor="middle" font-family="Inter,system-ui,sans-serif" font-size="13" fill="#8a8a84"><tspan fill="#1f5c3d" font-weight="600">95.7</tspan> / <tspan fill="#d6437c" font-weight="600">96.6</tspan></text><text x="254" y="262" text-anchor="end" font-family="Inter,system-ui,sans-serif" font-size="16.5" font-weight="600" fill="#1a1a19">Coding</text><text x="254" y="281" text-anchor="end" font-family="Inter,system-ui,sans-serif" font-size="13" fill="#8a8a84"><tspan fill="#1f5c3d" font-weight="600">80</tspan> / <tspan fill="#d6437c" font-weight="600">80</tspan></text><g font-family="Inter,system-ui,sans-serif" font-size="14">
  <line x1="300" y1="610" x2="334" y2="610" stroke="#1f5c3d" stroke-width="2.5"/><circle cx="317" cy="610" r="4.5" fill="#1f5c3d" stroke="#fff" stroke-width="1.2"/>
  <text x="342" y="615" fill="#1a1a19">fp8 (Z.AI)</text>
  <line x1="465" y1="610" x2="499" y2="610" stroke="#d6437c" stroke-width="2.2" stroke-dasharray="7 5"/><circle cx="482" cy="610" r="4.5" fill="#fff" stroke="#d6437c" stroke-width="1.8"/>
  <text x="507" y="615" fill="#1a1a19">fp4 (Baseten)</text>
</g></svg>